<?xml version="1.0" standalone="no"?>
<!DOCTYPE svg PUBLIC "-//W3C//DTD SVG 20010904//EN"
 "http://www.w3.org/TR/2001/REC-SVG-20010904/DTD/svg10.dtd">
<svg version="1.0" xmlns="http://www.w3.org/2000/svg"
 width="72.000000pt" height="72.000000pt" viewBox="0 0 72.000000 72.000000"
 preserveAspectRatio="xMidYMid meet">

<g transform="translate(0.000000,72.000000) scale(0.100000,-0.100000)"
fill="currentColor" stroke="currentColor">
<path d="M378 630 l-30 -31 41 -44 c23 -25 41 -51 41 -60 0 -23 25 -18 59 11
44 37 44 91 0 128 -40 34 -73 33 -111 -4z"/>
<path d="M231 514 c-44 -37 -44 -91 0 -128 17 -14 41 -26 54 -26 13 0 37 12
54 26 44 37 44 91 0 128 -17 14 -41 26 -54 26 -13 0 -37 -12 -54 -26z"/>
<path d="M445 434 c-8 -9 -15 -19 -15 -24 0 -5 -3 -15 -6 -24 -4 -9 12 -32 45
-63 28 -26 61 -68 74 -93 19 -37 29 -46 54 -48 45 -5 67 21 59 71 -15 94 -75
161 -168 188 -20 5 -32 3 -43 -7z"/>
<path d="M230 321 c-94 -31 -151 -95 -166 -188 -4 -30 -2 -44 11 -56 19 -19
35 -22 35 -7 0 6 8 27 17 48 l17 37 5 -45 6 -45 130 0 130 0 6 45 5 45 17 -37
c9 -21 17 -42 17 -48 0 -15 16 -12 35 7 29 29 3 124 -49 181 -46 52 -155 83
-216 63z"/>
</g>
</svg>
