<?xml version="1.0" standalone="no"?>
<!DOCTYPE svg PUBLIC "-//W3C//DTD SVG 20010904//EN"
 "http://www.w3.org/TR/2001/REC-SVG-20010904/DTD/svg10.dtd">
<svg version="1.0" xmlns="http://www.w3.org/2000/svg"
 width="72.000000pt" height="72.000000pt" viewBox="0 0 72.000000 72.000000"
 preserveAspectRatio="xMidYMid meet">

<g transform="translate(0.000000,72.000000) scale(0.100000,-0.100000)"
fill="currentColor" stroke="currentColor">
<path d="M162 604 l-72 -55 0 -69 c0 -38 4 -71 8 -74 5 -3 32 13 61 34 54 41
87 48 122 30 18 -10 19 -7 19 40 0 28 4 60 10 70 8 15 3 24 -25 49 -20 17 -39
31 -44 31 -4 0 -40 -25 -79 -56z"/>
<path d="M490 614 c-125 -46 -130 -51 -130 -133 l0 -65 75 -71 c83 -78 92
-104 55 -160 -13 -19 -20 -47 -20 -77 l0 -48 75 0 c120 0 115 -13 115 303 0
191 -3 266 -12 275 -19 19 -56 13 -158 -24z"/>
<path d="M136 340 c-52 -44 -98 -85 -102 -92 -4 -6 2 -19 14 -29 17 -13 22
-28 22 -68 0 -84 14 -91 170 -91 156 0 170 7 170 91 0 40 5 55 22 68 12 10 18
23 14 29 -11 18 -196 172 -206 172 -5 0 -51 -36 -104 -80z"/>
</g>
</svg>
